<svg width="113" height="22" viewBox="0 0 113 22" fill="none" xmlns="http://www.w3.org/2000/svg">
<path d="M23.1042 12.6759C23.1042 13.7383 23.1042 14.8009 23.1042 15.8633C22.9401 16.0038 22.7362 15.9949 22.538 15.995C17.4309 15.9976 12.3237 15.9987 7.21657 15.9942C6.53124 15.9937 6.40424 15.8671 6.40308 15.1921C6.39797 12.4278 6.39821 9.6635 6.40296 6.89914C6.40412 6.20872 6.52984 6.08859 7.25113 6.08782C11.1349 6.0836 15.0185 6.08637 18.9022 6.08582C19.7194 6.08571 19.7201 6.08515 19.72 5.29814C19.7199 4.78068 19.7156 4.26311 19.7208 3.74577C19.7237 3.45423 19.5987 3.31701 19.2901 3.32956C19.1341 3.33589 18.9771 3.32867 18.8207 3.32867C12.8458 3.32856 6.87083 3.32889 0.895955 3.32834C0.00962838 3.32823 -0.000461941 3.3269 0.0125279 2.49192C0.0254018 1.66395 -0.0440708 0.834639 0.0510336 0.00788382C7.62157 0.00788382 15.1921 0.00999317 22.7626 1.49718e-06C23.055 -0.000331559 23.1138 0.0547337 23.1127 0.334834C23.0991 3.35876 23.1042 6.38279 23.1042 9.40672C22.8843 9.58201 22.6188 9.53672 22.3675 9.53694C18.5435 9.53983 14.7196 9.53872 10.8956 9.53905C10.0083 9.53916 10.0079 9.53972 10.0081 10.3882C10.0082 10.9461 10.0005 11.5041 10.0112 12.0618C10.0192 12.4755 10.0747 12.5238 10.5118 12.5403C10.7817 12.5505 11.0519 12.5437 11.3221 12.5437C15.0039 12.5439 18.6857 12.5428 22.3675 12.5458C22.6188 12.5459 22.8843 12.5005 23.1042 12.6759Z" fill="#E13022"/>
<path d="M23.1039 21.9927C15.5763 21.9927 8.04878 21.9905 0.521271 21.9998C0.172168 22.0003 0.0460971 21.955 0.0473729 21.5714C0.0644221 16.5861 0.0621024 11.6008 0.0507363 6.61555C0.0500404 6.29627 0.131923 6.20834 0.465832 6.21855C1.27607 6.24331 2.08817 6.24164 2.89865 6.21988C3.26874 6.21 3.38229 6.31858 3.38113 6.68194C3.36791 10.6593 3.37545 14.6366 3.36686 18.614C3.36628 18.8792 3.40293 18.9845 3.72327 18.984C10.141 18.9738 16.5586 18.9763 22.9763 18.9759C23.0189 18.9759 23.0615 18.9714 23.104 18.9689C23.1039 19.9768 23.1039 20.9848 23.1039 21.9927Z" fill="#E13022"/>
<path d="M46.6168 15.4368C46.6168 15.9337 46.6168 17.032 46.6168 18.1302C46.4554 18.2754 46.2549 18.2662 46.06 18.2663C41.0381 18.2689 36.6144 18.2701 31.5924 18.2655C30.9185 18.2649 30.7936 18.1341 30.7925 17.4364C30.7875 14.5791 30.7877 12.9244 30.7924 10.0671C30.7935 9.35346 30.9171 9.2293 31.6264 9.22849C35.4454 9.22413 39.2642 9.227 43.0832 9.22643C43.8868 9.22631 43.8875 9.22574 43.8874 8.41226C43.8872 7.8774 43.883 7.34243 43.8882 6.80768C43.891 6.50634 43.7681 6.36451 43.4646 6.37747C43.3112 6.38401 43.1569 6.37656 43.003 6.37656C37.1278 6.37644 37.525 6.37679 31.6498 6.37621C30.7782 6.3761 30.7683 6.37472 30.7811 5.51167C30.7937 4.65573 30.7255 4.39982 30.8189 3.54526C38.2632 3.54526 38.8366 3.54744 46.2809 3.53711C46.5684 3.53677 46.6263 3.59368 46.6251 3.8832C46.6118 7.00882 46.6168 8.93199 46.6168 12.0576C46.4006 12.2388 46.1395 12.192 45.8924 12.1922C42.1321 12.1952 38.372 12.1941 34.6117 12.1944C33.7393 12.1945 33.7388 12.1951 33.739 13.0721C33.7392 13.6488 33.7315 14.2255 33.7421 14.802C33.75 15.2296 33.8045 15.2795 34.2344 15.2966C34.4997 15.3072 34.7655 15.3 35.0311 15.3C38.6515 15.3003 42.2719 15.2991 45.8924 15.3022C46.1395 15.3025 46.4007 15.2555 46.6168 15.4368Z" fill="black"/>
<path d="M102.307 18.4425V9.17627C102.307 8.64518 102.446 8.163 102.723 7.72974C103.001 7.29647 103.366 6.94707 103.819 6.68152C104.286 6.41598 104.79 6.2832 105.33 6.2832H112.382V9.02952H105.439C105.366 9.02952 105.301 9.05747 105.242 9.11338C105.198 9.1553 105.176 9.21121 105.176 9.28109V18.4425H102.307Z" fill="black"/>
<path d="M97.0029 18.4423V6.28301H99.8713V18.4423H97.0029ZM97.0029 5.06709V2.2998H99.8713V5.06709H97.0029Z" fill="black"/>
<path d="M84.8183 18.4425C84.2634 18.4425 83.7524 18.3097 83.2852 18.0441C82.8326 17.7786 82.4675 17.4292 82.1901 16.9959C81.9273 16.5627 81.7959 16.0805 81.7959 15.5494V10.9792H91.8267V9.28109C91.8267 9.21121 91.7975 9.1553 91.7391 9.11338C91.6953 9.05747 91.6369 9.02952 91.5639 9.02952H81.7959V6.2832H91.6734C92.2282 6.2832 92.732 6.41598 93.1846 6.68152C93.6518 6.94707 94.0168 7.29647 94.2796 7.72974C94.5571 8.163 94.6958 8.64518 94.6958 9.17627V18.4425H84.8183ZM84.9278 15.6961H91.8267V13.453H84.665V15.4446C84.665 15.5145 84.6869 15.5773 84.7307 15.6333C84.7891 15.6752 84.8548 15.6961 84.9278 15.6961Z" fill="black"/>
<path d="M66.1006 18.4424V3.34814H80.6211V6.13639H69.0135V9.49067H78.3434V12.2999H69.0135V18.4424H66.1006Z" fill="black"/>
<path d="M48.626 18.4424V3.34814H51.5389V9.49067H55.2402L60.6279 3.34814H63.7817V4.14479L57.8683 10.8953L63.8036 17.6458V18.4424H60.6279L55.2402 12.2999H51.5389V18.4424H48.626Z" fill="black"/>
</svg>