<svg width="144" height="28" viewBox="0 0 144 28" fill="none" xmlns="http://www.w3.org/2000/svg">
<path d="M29.4054 16.1329C29.4054 17.4851 29.4054 18.8375 29.4054 20.1897C29.1965 20.3684 28.937 20.3571 28.6847 20.3573C22.1848 20.3605 15.6847 20.3619 9.18472 20.3563C8.31248 20.3556 8.15085 20.1945 8.14937 19.3354C8.14288 15.8171 8.14317 12.299 8.14922 8.78072C8.1507 7.902 8.31071 7.74912 9.22871 7.74813C14.1716 7.74276 19.1144 7.74629 24.0574 7.74559C25.0974 7.74545 25.0983 7.74474 25.0982 6.74309C25.098 6.08451 25.0926 5.42578 25.0992 4.76734C25.1029 4.3963 24.9438 4.22165 24.551 4.23762C24.3524 4.24568 24.1527 4.23649 23.9536 4.23649C16.3492 4.23635 8.74469 4.23677 1.14031 4.23607C0.0122543 4.23593 -0.000587924 4.23423 0.0159446 3.17154C0.0323296 2.11775 -0.0560901 1.06227 0.0649518 0.0100339C9.70018 0.0100339 19.3354 0.0127186 28.9706 1.9055e-06C29.3428 -0.000421984 29.4176 0.069661 29.4161 0.426152C29.3989 4.27478 29.4054 8.12355 29.4054 11.9722C29.1255 12.1953 28.7876 12.1376 28.4677 12.1379C23.6008 12.1416 18.734 12.1402 13.8671 12.1406C12.7379 12.1408 12.7373 12.1415 12.7376 13.2214C12.7377 13.9314 12.7279 14.6416 12.7416 15.3514C12.7518 15.8779 12.8223 15.9394 13.3787 15.9604C13.7222 15.9734 14.0661 15.9647 14.4099 15.9647C19.0958 15.9649 23.7818 15.9635 28.4677 15.9673C28.7876 15.9675 29.1255 15.9097 29.4054 16.1329Z" fill="#E13022"/>
<path d="M29.405 27.9908C19.8244 27.9908 10.2439 27.988 0.663458 27.9998C0.219146 28.0004 0.0586912 27.9428 0.0603149 27.4546C0.0820139 21.1097 0.0790617 14.7648 0.0645957 8.41984C0.06371 8.01347 0.167924 7.90157 0.592899 7.91457C1.62412 7.94608 2.6577 7.94396 3.68921 7.91626C4.16024 7.90369 4.30475 8.04187 4.30328 8.50434C4.28645 13.5664 4.29604 18.6285 4.28512 23.6906C4.28438 24.0281 4.33103 24.1621 4.73873 24.1615C12.9067 24.1485 21.0747 24.1516 29.2426 24.1512C29.2968 24.1512 29.351 24.1454 29.4052 24.1423C29.405 25.425 29.405 26.708 29.405 27.9908Z" fill="#E13022"/>
<path d="M59.3303 19.6471C59.3303 20.2795 59.3303 21.6773 59.3303 23.075C59.1249 23.2597 58.8698 23.248 58.6217 23.2482C52.2301 23.2515 46.5999 23.253 40.2084 23.2472C39.3507 23.2464 39.1917 23.0799 39.1903 22.192C39.1839 18.5554 39.1842 16.4495 39.1901 12.8129C39.1916 11.9046 39.3489 11.7466 40.2516 11.7455C45.1122 11.74 49.9725 11.7436 54.833 11.7429C55.8558 11.7428 55.8567 11.742 55.8565 10.7067C55.8564 10.026 55.851 9.34508 55.8575 8.6645C55.8612 8.28097 55.7047 8.10046 55.3184 8.11696C55.1232 8.12529 54.9268 8.11579 54.731 8.11579C47.2534 8.11565 47.759 8.11609 40.2814 8.11536C39.1721 8.11521 39.1595 8.11346 39.1758 7.01503C39.1919 5.92565 39.1051 5.59995 39.224 4.51232C48.6985 4.51232 49.4283 4.5151 58.9029 4.50196C59.2688 4.50152 59.3424 4.57396 59.3409 4.94244C59.3239 8.9205 59.3303 11.3682 59.3303 15.3462C59.0551 15.5768 58.7229 15.5172 58.4083 15.5175C53.6226 15.5213 48.8369 15.5199 44.0512 15.5203C42.9408 15.5205 42.9402 15.5212 42.9405 16.6374C42.9406 17.3713 42.9309 18.1054 42.9444 18.8391C42.9544 19.3833 43.0238 19.4468 43.5709 19.4686C43.9086 19.482 44.2468 19.473 44.5849 19.473C49.1927 19.4733 53.8005 19.4718 58.4083 19.4757C58.7229 19.476 59.0553 19.4163 59.3303 19.6471Z" fill="white"/>
<path d="M130.209 23.472V11.6787C130.209 11.0027 130.386 10.389 130.739 9.83762C131.092 9.2862 131.557 8.8415 132.133 8.50354C132.727 8.16557 133.369 7.99658 134.056 7.99658H143.032V11.4919H134.196C134.103 11.4919 134.019 11.5275 133.945 11.5986C133.889 11.652 133.861 11.7231 133.861 11.8121V23.472H130.209Z" fill="white"/>
<path d="M123.458 23.4717V7.99629H127.109V23.4717H123.458ZM123.458 6.44875V2.92676H127.109V6.44875H123.458Z" fill="white"/>
<path d="M107.951 23.472C107.245 23.472 106.594 23.303 105.999 22.9651C105.423 22.6271 104.959 22.1824 104.606 21.631C104.271 21.0795 104.104 20.4659 104.104 19.7899V13.9733H116.87V11.8121C116.87 11.7231 116.833 11.652 116.759 11.5986C116.703 11.5275 116.629 11.4919 116.536 11.4919H104.104V7.99658H116.675C117.382 7.99658 118.023 8.16557 118.599 8.50354C119.193 8.8415 119.658 9.2862 119.992 9.83762C120.345 10.389 120.522 11.0027 120.522 11.6787V23.472H107.951ZM108.09 19.9767H116.87V17.1217H107.756V19.6565C107.756 19.7455 107.783 19.8255 107.839 19.8966C107.914 19.95 107.997 19.9767 108.09 19.9767Z" fill="white"/>
<path d="M84.1279 23.4721V4.26123H102.609V7.8099H87.8352V12.079H99.7097V15.6543H87.8352V23.4721H84.1279Z" fill="white"/>
<path d="M61.8877 23.4721V4.26123H65.595V12.079H70.3058L77.1629 4.26123H81.1768V5.27514L73.6507 13.8667L81.2046 22.4582V23.4721H77.1629L70.3058 15.6543H65.595V23.4721H61.8877Z" fill="white"/>
</svg>