<svg width="145" height="28" viewBox="0 0 145 28" fill="none" xmlns="http://www.w3.org/2000/svg">
<path fill-rule="evenodd" clip-rule="evenodd" d="M14.0002 26.1935C20.7345 26.1935 26.1937 20.7343 26.1937 13.9999C26.1937 7.26563 20.7345 1.8064 14.0002 1.8064C7.26588 1.8064 1.80664 7.26563 1.80664 13.9999C1.80664 17.069 2.94049 19.8732 4.81215 22.0166L11.2116 16.0827C11.3823 15.8244 11.511 15.5393 11.5918 15.238L11.6161 15.1472L8.07552 14.6209C7.66035 14.5592 7.66035 13.9605 8.07552 13.8987L11.2379 13.4287L7.57671 8.48913C7.32677 8.15193 7.75015 7.72855 8.08735 7.97849L13.0282 11.6407L13.4987 8.4756C13.5604 8.06043 14.1591 8.06043 14.2208 8.47561L14.6909 11.6384L19.6287 7.97849C19.9659 7.72855 20.3893 8.15193 20.1394 8.48913L16.4785 13.4283L19.644 13.8987C20.0591 13.9605 20.0591 14.5592 19.644 14.6209L16.4785 15.0914L20.1394 20.0305C20.3893 20.3677 19.9659 20.7911 19.6287 20.5412L14.6909 16.8813L14.2208 20.0441C14.1591 20.4592 13.5604 20.4592 13.4987 20.044L12.9721 16.5013L12.6735 16.5813C12.5071 16.6259 12.3498 16.6968 12.2072 16.7906L6.15721 23.3368C8.27734 25.1196 11.0134 26.1935 14.0002 26.1935Z" fill="black"/>
<path fill-rule="evenodd" clip-rule="evenodd" d="M14.0002 26.1935C20.7345 26.1935 26.1937 20.7343 26.1937 13.9999C26.1937 7.26563 20.7345 1.8064 14.0002 1.8064C7.26588 1.8064 1.80664 7.26563 1.80664 13.9999C1.80664 17.069 2.94049 19.8732 4.81215 22.0166L11.2116 16.0827C11.3823 15.8244 11.511 15.5393 11.5918 15.238L11.6161 15.1472L8.07552 14.6209C7.66035 14.5592 7.66035 13.9605 8.07552 13.8987L11.2379 13.4287L7.57671 8.48913C7.32677 8.15193 7.75015 7.72855 8.08735 7.97849L13.0282 11.6407L13.4987 8.4756C13.5604 8.06043 14.1591 8.06043 14.2208 8.47561L14.6909 11.6384L19.6287 7.97849C19.9659 7.72855 20.3893 8.15193 20.1394 8.48913L16.4785 13.4283L19.644 13.8987C20.0591 13.9605 20.0591 14.5592 19.644 14.6209L16.4785 15.0914L20.1394 20.0305C20.3893 20.3677 19.9659 20.7911 19.6287 20.5412L14.6909 16.8813L14.2208 20.0441C14.1591 20.4592 13.5604 20.4592 13.4987 20.044L12.9721 16.5013L12.6735 16.5813C12.5071 16.6259 12.3498 16.6968 12.2072 16.7906L6.15721 23.3368C8.27734 25.1196 11.0134 26.1935 14.0002 26.1935Z" fill="url(#paint0_linear_1121_2517)"/>
<path d="M140.169 20.8093V15.8768C140.169 15.5543 140.147 15.197 140.103 14.8049C140.059 14.4128 139.954 14.0366 139.79 13.6761C139.632 13.3093 139.391 13.0089 139.069 12.775C138.753 12.541 138.323 12.424 137.779 12.424C137.488 12.424 137.2 12.4714 136.916 12.5663C136.631 12.6611 136.372 12.8256 136.138 13.0595C135.91 13.2872 135.727 13.6034 135.588 14.0081C135.449 14.4065 135.379 14.9187 135.379 15.5448L134.023 14.9662C134.023 14.0935 134.19 13.303 134.525 12.5947C134.867 11.8865 135.366 11.3237 136.024 10.9063C136.682 10.4826 137.491 10.2708 138.452 10.2708C139.211 10.2708 139.837 10.3972 140.33 10.6502C140.824 10.9031 141.216 11.2256 141.507 11.6177C141.798 12.0098 142.013 12.4272 142.152 12.8698C142.291 13.3125 142.379 13.733 142.417 14.1314C142.462 14.5235 142.484 14.8428 142.484 15.0895V20.8093H140.169ZM133.064 20.8093V10.5648H135.104V13.7425H135.379V20.8093H133.064Z" fill="black"/>
<path d="M128.146 20.8095V10.5649H130.433V20.8095H128.146Z" fill="black"/>
<rect x="128.131" y="7.65942" width="2.29239" height="1.95097" fill="black"/>
<path d="M120.078 21.0939C119.338 21.0939 118.712 20.9548 118.2 20.6766C117.688 20.392 117.299 20.0157 117.033 19.5478C116.774 19.0798 116.645 18.5644 116.645 18.0016C116.645 17.5083 116.727 17.0657 116.891 16.6736C117.056 16.2752 117.309 15.9337 117.65 15.6492C117.991 15.3583 118.434 15.1211 118.978 14.9377C119.389 14.8049 119.87 14.6848 120.42 14.5773C120.976 14.4698 121.577 14.3718 122.222 14.2832C122.873 14.1884 123.553 14.0872 124.262 13.9797L123.446 14.4445C123.452 13.7362 123.294 13.2145 122.971 12.8793C122.649 12.5442 122.105 12.3766 121.34 12.3766C120.878 12.3766 120.432 12.4841 120.002 12.6991C119.572 12.9141 119.272 13.2841 119.101 13.8089L117.014 13.1544C117.267 12.2881 117.748 11.5925 118.456 11.0676C119.171 10.5427 120.132 10.2803 121.34 10.2803C122.251 10.2803 123.051 10.4289 123.74 10.7261C124.435 11.0233 124.951 11.5102 125.286 12.1869C125.469 12.5473 125.58 12.9173 125.618 13.2967C125.656 13.6698 125.675 14.0777 125.675 14.5204V20.8094H123.673V18.5897L124.005 18.9502C123.544 19.69 123.003 20.2339 122.383 20.5817C121.77 20.9232 121.002 21.0939 120.078 21.0939ZM120.534 19.2727C121.052 19.2727 121.495 19.181 121.862 18.9976C122.228 18.8142 122.519 18.5897 122.734 18.3241C122.956 18.0585 123.104 17.8087 123.18 17.5747C123.3 17.2839 123.367 16.9519 123.379 16.5788C123.398 16.1993 123.408 15.8926 123.408 15.6586L124.11 15.8673C123.42 15.9748 122.829 16.0697 122.336 16.1519C121.843 16.2341 121.419 16.3132 121.065 16.389C120.711 16.4586 120.398 16.5376 120.126 16.6262C119.86 16.721 119.636 16.8317 119.452 16.9582C119.269 17.0847 119.127 17.2301 119.025 17.3945C118.931 17.5589 118.883 17.7518 118.883 17.9731C118.883 18.2261 118.946 18.4506 119.073 18.6466C119.199 18.8363 119.383 18.9881 119.623 19.1019C119.87 19.2158 120.173 19.2727 120.534 19.2727Z" fill="black"/>
<path d="M112.615 20.8095V15.877C112.615 15.5544 112.592 15.1971 112.548 14.8051C112.504 14.413 112.4 14.0367 112.235 13.6763C112.077 13.3095 111.837 13.0091 111.514 12.7751C111.198 12.5412 110.768 12.4242 110.224 12.4242C109.933 12.4242 109.646 12.4716 109.361 12.5665C109.076 12.6613 108.817 12.8257 108.583 13.0597C108.355 13.2874 108.172 13.6036 108.033 14.0083C107.894 14.4067 107.824 14.9189 107.824 15.545L106.468 14.9663C106.468 14.0937 106.635 13.3032 106.971 12.5949C107.312 11.8867 107.812 11.3238 108.469 10.9065C109.127 10.4828 109.936 10.2709 110.898 10.2709C111.656 10.2709 112.283 10.3974 112.776 10.6504C113.269 10.9033 113.661 11.2258 113.952 11.6179C114.243 12.01 114.458 12.4273 114.597 12.87C114.736 13.3127 114.825 13.7332 114.863 14.1316C114.907 14.5237 114.929 14.843 114.929 15.0896V20.8095H112.615ZM105.51 20.8095V7.15015H107.549V14.3403H107.824V20.8095H105.51Z" fill="black"/>
<path d="M97.4887 21.094C96.1228 21.094 94.9529 20.7968 93.979 20.2023C93.0052 19.6016 92.2558 18.7668 91.7309 17.6981C91.2124 16.6294 90.9531 15.3899 90.9531 13.9797C90.9531 12.5695 91.2124 11.3301 91.7309 10.2613C92.2558 9.19263 93.0052 8.36105 93.979 7.76662C94.9529 7.16586 96.1228 6.86548 97.4887 6.86548C99.0634 6.86548 100.376 7.26071 101.425 8.05119C102.475 8.83533 103.212 9.89457 103.635 11.2289L101.33 11.8644C101.065 10.9728 100.613 10.2772 99.974 9.77757C99.3353 9.27167 98.5069 9.01872 97.4887 9.01872C96.5718 9.01872 95.8066 9.22425 95.1932 9.63529C94.5861 10.0463 94.1277 10.625 93.8178 11.3712C93.5143 12.111 93.3593 12.9806 93.353 13.9797C93.353 14.9789 93.5048 15.8516 93.8083 16.5978C94.1182 17.3376 94.5798 17.9131 95.1932 18.3242C95.8066 18.7352 96.5718 18.9407 97.4887 18.9407C98.5069 18.9407 99.3353 18.6878 99.974 18.1819C100.613 17.676 101.065 16.9804 101.33 16.095L103.635 16.7306C103.212 18.0649 102.475 19.1273 101.425 19.9177C100.376 20.7019 99.0634 21.094 97.4887 21.094Z" fill="black"/>
<path d="M84.4798 20.8093V15.8768C84.4798 15.5543 84.4576 15.197 84.4134 14.8049C84.3691 14.4128 84.2648 14.0366 84.1003 13.6761C83.9422 13.3093 83.7019 13.0089 83.3794 12.775C83.0632 12.541 82.6332 12.424 82.0894 12.424C81.7985 12.424 81.5107 12.4714 81.2262 12.5663C80.9416 12.6611 80.6823 12.8256 80.4484 13.0595C80.2207 13.2872 80.0373 13.6034 79.8982 14.0081C79.7591 14.4065 79.6895 14.9187 79.6895 15.5448L78.3331 14.9662C78.3331 14.0935 78.5006 13.303 78.8358 12.5947C79.1773 11.8865 79.6769 11.3237 80.3345 10.9063C80.9922 10.4826 81.8016 10.2708 82.7629 10.2708C83.5217 10.2708 84.1478 10.3972 84.641 10.6502C85.1343 10.9031 85.5263 11.2256 85.8172 11.6177C86.1081 12.0098 86.3231 12.4272 86.4623 12.8698C86.6014 13.3125 86.6899 13.733 86.7279 14.1314C86.7721 14.5235 86.7943 14.8428 86.7943 15.0895V20.8093H84.4798ZM77.375 20.8093V10.5648H79.4144V13.7425H79.6895V20.8093H77.375Z" fill="black"/>
<path d="M72.4551 20.8095V10.5649H74.7411V20.8095H72.4551Z" fill="black"/>
<path d="M73.6256 5.95239L73.7588 6.57239C73.9008 7.23363 74.4173 7.75017 75.0785 7.89216L75.6985 8.0253L75.0785 8.15843C74.4173 8.30043 73.9008 8.81696 73.7588 9.47821L73.6256 10.0982L73.4925 9.47821C73.3505 8.81696 72.834 8.30043 72.1727 8.15843L71.5527 8.0253L72.1727 7.89216C72.834 7.75017 73.3505 7.23363 73.4925 6.57239L73.6256 5.95239Z" fill="black"/>
<path d="M67.3281 20.8094V6.86548H69.6142V20.8094H67.3281Z" fill="black"/>
<path d="M59.752 20.8095V10.565H61.7724V13.0597L61.5258 12.7372C61.6522 12.3957 61.8198 12.0859 62.0285 11.8076C62.2435 11.523 62.4996 11.2891 62.7968 11.1057C63.0498 10.9349 63.328 10.8021 63.6316 10.7073C63.9415 10.6061 64.2576 10.546 64.5802 10.5271C64.9027 10.5018 65.2157 10.5144 65.5192 10.565V12.6993C65.2157 12.6107 64.8647 12.5823 64.4663 12.6139C64.0743 12.6455 63.7201 12.7562 63.4039 12.9459C63.0877 13.1166 62.8285 13.3348 62.6261 13.6004C62.4301 13.866 62.2846 14.1695 62.1898 14.511C62.0949 14.8462 62.0475 15.2098 62.0475 15.6019V20.8095H59.752Z" fill="black"/>
<path d="M53.1856 21.0939C52.1485 21.0939 51.2379 20.8694 50.4537 20.4204C49.6696 19.9715 49.0562 19.3486 48.6135 18.5518C48.1772 17.755 47.959 16.838 47.959 15.8009C47.959 14.6816 48.174 13.7109 48.604 12.8888C49.034 12.0604 49.6316 11.4186 50.3968 10.9632C51.162 10.5079 52.0473 10.2803 53.0528 10.2803C54.1152 10.2803 55.0163 10.5301 55.7562 11.0296C56.5024 11.5229 57.0557 12.2217 57.4162 13.126C57.7766 14.0303 57.9126 15.0958 57.8241 16.3226H55.557V15.4879C55.5507 14.3749 55.3546 13.5623 54.9689 13.0501C54.5831 12.5379 53.9761 12.2817 53.1476 12.2817C52.2117 12.2817 51.5161 12.5726 51.0608 13.1544C50.6055 13.7299 50.3778 14.5741 50.3778 15.6871C50.3778 16.7242 50.6055 17.5273 51.0608 18.0965C51.5161 18.6656 52.1801 18.9502 53.0528 18.9502C53.6156 18.9502 54.0994 18.8269 54.5041 18.5802C54.9151 18.3273 55.2313 17.9637 55.4527 17.4894L57.7102 18.1723C57.3182 19.0956 56.7111 19.8134 55.889 20.3256C55.0732 20.8378 54.1721 21.0939 53.1856 21.0939ZM49.6569 16.3226V14.5962H56.7048V16.3226H49.6569Z" fill="black"/>
<path d="M32.4883 20.8095V7.15015H34.5467L39.2705 16.8255L43.9944 7.15015H46.0528V20.8095H43.9185V12.0542L39.7258 20.8095H38.8152L34.632 12.0542V20.8095H32.4883Z" fill="black"/>
<defs>
<linearGradient id="paint0_linear_1121_2517" x1="-2.21597" y1="3.17817" x2="30.8474" y2="20.9814" gradientUnits="userSpaceOnUse">
<stop stop-color="#2A2CBF"/>
<stop offset="0.515625" stop-color="#6335FF"/>
<stop offset="1" stop-color="#BD89FF"/>
</linearGradient>
</defs>
</svg>
